<svg width="686" height="514" viewBox="0 0 686 514" fill="none" xmlns="http://www.w3.org/2000/svg">
<path d="M83.6577 349.263V181.802C83.6567 178.796 84.4649 175.845 85.9977 173.259C87.5305 170.673 89.7315 168.546 92.3699 167.101L361.385 19.8918C363.893 18.5177 366.712 17.8073 369.572 17.8283C372.433 17.8493 375.241 18.6009 377.729 20.0117L624.449 159.854C627.112 161.341 629.318 163.527 630.829 166.175C632.34 168.823 633.099 171.833 633.024 174.88C632.132 207.433 629.388 308.177 629.388 314.071" fill="#00275E"/>
<path opacity="0.61" d="M83.6577 349.263V181.802C83.6567 178.796 84.4649 175.845 85.9977 173.259C87.5305 170.673 89.7315 168.546 92.3699 167.101L361.385 19.8918C363.893 18.5177 366.712 17.8073 369.572 17.8283C372.433 17.8493 375.241 18.6009 377.729 20.0117L624.449 159.854C627.112 161.341 629.318 163.527 630.829 166.175C632.34 168.823 633.099 171.833 633.024 174.88C632.132 207.433 629.388 308.177 629.388 314.071" fill="#00275E"/>
<path d="M91.6666 334.905L361.436 180.979C367.832 177.33 375.075 175.423 382.44 175.45C389.805 175.477 397.034 177.437 403.402 181.134L621.413 307.663C623.807 309.064 625.793 311.066 627.173 313.47C628.553 315.875 629.279 318.598 629.279 321.37C629.279 324.142 628.553 326.865 627.173 329.27C625.793 331.674 623.807 333.676 621.413 335.077L356.72 490.493C350.46 494.171 343.338 496.129 336.076 496.168C328.814 496.207 321.67 494.326 315.371 490.716L91.6323 362.473C89.2036 361.08 87.1863 359.07 85.7845 356.648C84.3828 354.226 83.6464 351.477 83.6499 348.679C83.6534 345.881 84.3966 343.134 85.8044 340.715C87.2121 338.297 89.2344 336.292 91.6666 334.905Z" fill="#FFAE46"/>
<path d="M379.478 183.841C377.197 183.601 356.446 174.417 339.038 177.724C334.819 178.529 303.829 215.229 304.738 221.191C305.647 227.154 322.077 248.091 322.077 248.091L365.295 206.971" fill="#68E1FD"/>
<path opacity="0.61" d="M360.99 210.02L364.06 207.108L378.295 183.926C376.048 183.686 356.085 174.88 338.85 177.638C338.97 190.985 349.465 203.133 360.99 210.02Z" fill="black"/>
<path d="M424.737 276.206C421.89 264.59 417.465 244.167 413.967 239.747C408.65 233.03 394.313 217.765 394.313 217.765L383.817 239.336L399.115 255.03L408.41 279.959C414.292 278.708 419.557 279.273 424.737 276.206Z" fill="white"/>
<path d="M409.405 273.671C409.405 273.671 402.39 292.62 405.032 294.145C409.508 296.715 410.434 283.214 412.869 286.041C415.304 288.868 417.345 303.037 421.65 301.341C425.955 299.645 428.681 278.742 420.707 265.824C412.732 252.905 409.405 273.671 409.405 273.671Z" fill="white"/>
<path d="M285.908 295.876C285.908 295.876 276.029 295.619 274.332 301.016C272.634 306.413 270.37 335.282 280.317 336.721C290.264 338.161 292.099 310.25 292.099 310.25" fill="white"/>
<path d="M262.584 255.784C261.246 255.509 256.856 262.894 256.187 264.008C254.201 267.311 252.715 270.891 251.779 274.63C250.476 279.942 249.378 287.309 251.505 292.535C255.055 301.307 265.671 293.357 268.655 288.011C269.908 285.608 270.908 283.082 271.639 280.473C272.14 276.729 272.415 272.958 272.462 269.182V258.713C269.248 257.49 265.946 256.51 262.584 255.784Z" fill="white"/>
<path d="M341.868 213.379C341.868 213.379 322.197 246.72 320.379 259.039C318.561 271.358 310.432 312.889 319.659 315.133C328.885 317.378 338.249 314.842 343.669 293.854C347.27 280.147 346.841 258.611 346.841 258.611L341.868 213.379Z" fill="white"/>
<path d="M391.363 230.358C392.615 226.229 393.49 222.014 394.33 217.782L393.919 217.182L369.411 201.197C369.411 201.197 354.353 207.313 351.695 216.48C349.037 225.646 359.841 262.637 359.841 262.637L388.173 238.65C389.396 235.95 390.461 233.181 391.363 230.358Z" fill="white"/>
<path d="M322.523 292.072L285.925 295.876C285.925 295.876 278.19 307.595 288.514 316.607C288.514 316.607 323.569 320.462 333.756 312.786C343.943 305.11 322.523 292.072 322.523 292.072Z" fill="white"/>
<path d="M297.621 286.486C308.151 281.998 341.577 264.522 341.577 264.522L297.621 286.486Z" fill="white"/>
<path d="M297.621 286.486C289.252 287.84 268.072 281.535 268.072 281.535C250.922 274.545 271.656 258.268 271.656 258.268C271.656 258.268 288.652 261.934 296.781 259.347C304.91 256.76 332.024 229.861 332.024 229.861C332.024 229.861 334.854 267.554 331.132 273.551C327.411 279.547 297.621 286.486 297.621 286.486Z" fill="white"/>
<path d="M371.812 269.148C371.812 269.148 387.504 268.771 387.504 272.18C387.504 275.59 380.936 276.635 380.936 276.635C380.936 276.635 389.991 290.547 385.858 295.481C381.725 300.416 371.212 298.634 369.377 296.527C367.542 294.419 361.968 280.695 361.968 280.695" fill="white"/>
<path d="M316.126 292.072C316.126 292.072 327.085 301.906 330.669 302.952C334.254 303.997 341.371 301.838 341.371 301.838C341.371 301.838 336.226 307.372 330.669 307.629C325.113 307.886 316.126 292.072 316.126 292.072Z" fill="#57464E"/>
<path d="M293.522 288.183C291.322 283.504 289.798 278.537 288.995 273.431C288.806 269.199 291.293 260.17 291.293 260.17L293.625 259.964C293.625 259.964 290.847 272.249 291.91 274.356C292.973 276.463 297.57 286.486 297.57 286.486C297.57 286.486 297.81 291.061 293.522 288.183Z" fill="#57464E"/>
<path d="M388.293 238.77L358.71 236.44C358.71 236.44 358.538 251.672 361.574 256.126C364.609 260.581 364.455 258.473 364.455 258.473L388.293 238.77Z" fill="#A8A8A8"/>
<path d="M369.394 201.197C369.394 201.197 346.43 207.827 341.868 214.903C337.306 221.979 336.998 252.168 341.868 260.135C346.739 268.102 361.968 282.289 361.968 282.289C361.968 282.289 371.04 274.459 371.812 270.672C371.812 270.672 361.642 253.899 360.425 249.598C359.207 245.298 369.394 201.197 369.394 201.197Z" fill="white"/>
<path d="M341.868 260.05C341.868 260.05 353.084 253.865 361.659 252.494C361.659 252.494 350.718 248.947 341.868 260.05Z" fill="#57464E"/>
<path d="M380.97 217.782C380.97 217.782 397.674 218.501 404.294 206.491C410.914 194.48 401.893 178.495 387.35 177.193C372.807 175.891 364.575 189.186 364.575 194.737C364.575 200.289 368.725 214.646 380.97 217.782Z" fill="white"/>
<path d="M370.44 203.39C370.44 203.39 370.989 219.906 389.065 218.81C407.141 217.713 409.096 201.968 406.078 197.667C403.059 193.367 381.313 183.327 370.44 203.39Z" fill="url(#paint0_linear)"/>
<path opacity="0.54" d="M403.848 201.796C403.736 201.483 403.509 201.224 403.213 201.071C402.917 200.918 402.574 200.882 402.253 200.971C401.932 201.06 401.656 201.267 401.481 201.55C401.306 201.833 401.245 202.172 401.31 202.499C401.674 203.676 401.723 204.929 401.452 206.131C401.182 207.333 400.6 208.444 399.767 209.352C398.618 210.603 400.487 212.47 401.636 211.22C402.791 209.976 403.603 208.453 403.99 206.801C404.378 205.148 404.329 203.424 403.848 201.796Z" fill="white"/>
<path opacity="0.54" d="M397.006 211.922C396.655 211.922 396.319 212.061 396.072 212.309C395.824 212.556 395.685 212.892 395.685 213.241C395.685 213.591 395.824 213.927 396.072 214.174C396.319 214.422 396.655 214.561 397.006 214.561C397.356 214.561 397.692 214.422 397.939 214.174C398.187 213.927 398.326 213.591 398.326 213.241C398.326 212.892 398.187 212.556 397.939 212.309C397.692 212.061 397.356 211.922 397.006 211.922Z" fill="white"/>
<path d="M369.548 191.345L393.644 161.961C393.644 161.961 394.313 161.67 394.073 162.407L370.44 191.893L369.548 191.345Z" fill="#A8A8A8"/>
<path d="M373.51 191.345C373.51 191.345 370.834 188.09 369.565 188.21C368.296 188.33 365.175 192.202 365.741 193.213C366.307 194.223 368.073 196.091 368.965 195.868C369.857 195.646 373.51 191.345 373.51 191.345Z" fill="#A8A8A8"/>
<path d="M372.155 189.752C370.44 191.465 368.725 193.007 367.01 194.6C367.73 195.354 368.588 195.988 369.136 195.868C370.028 195.646 373.698 191.345 373.698 191.345C373.698 191.345 373.029 190.54 372.155 189.752Z" fill="#898989"/>
<path d="M362.86 260.05L358.606 263.082L360.733 265.687L364.866 262.877L362.86 260.05Z" fill="#57464E"/>
<path d="M365.878 266.355C365.651 266.355 365.432 266.445 365.272 266.606C365.111 266.766 365.021 266.984 365.021 267.211C365.021 267.439 365.111 267.657 365.272 267.817C365.432 267.978 365.651 268.068 365.878 268.068C366.105 268.068 366.324 267.978 366.484 267.817C366.645 267.657 366.735 267.439 366.735 267.211C366.735 266.984 366.645 266.766 366.484 266.606C366.324 266.445 366.105 266.355 365.878 266.355Z" fill="#777777"/>
<path d="M368.485 269.233C368.258 269.233 368.039 269.323 367.879 269.484C367.718 269.645 367.627 269.863 367.627 270.09C367.627 270.317 367.718 270.535 367.879 270.696C368.039 270.856 368.258 270.947 368.485 270.947C368.712 270.947 368.93 270.856 369.091 270.696C369.252 270.535 369.342 270.317 369.342 270.09C369.342 269.863 369.252 269.645 369.091 269.484C368.93 269.323 368.712 269.233 368.485 269.233Z" fill="#777777"/>
<path d="M277.83 261.523C277.83 261.523 268.123 269.456 268.192 274.133C268.26 278.811 271.244 288.405 271.244 288.405C271.244 288.405 272.188 277.8 273.525 274.545C275.679 270.457 278.079 266.503 280.711 262.705L277.83 261.523Z" fill="#57464E"/>
<path d="M285.908 295.876C285.908 295.876 283.49 303.329 284.639 306.156C285.788 308.983 291.242 317.635 291.242 317.635L295.272 317.224C295.272 317.224 287.88 307.064 287.417 304.888C286.954 302.712 285.908 295.876 285.908 295.876Z" fill="#57464E"/>
<path d="M263.99 254.207C264.178 253.899 260.285 261.061 260.954 261.54C263.599 262.427 266.29 263.17 269.015 263.768L273.217 256.709L263.99 254.207Z" fill="#2D1E45"/>
<path d="M341.868 214.818C341.868 214.818 337.186 243.019 338.335 247.765C339.484 252.511 346.619 266.355 346.619 266.355L346.327 276.635C346.327 276.635 334.888 260.684 334.151 252.014C333.413 243.345 341.868 214.818 341.868 214.818Z" fill="#A8A8A8"/>
<path d="M317.584 276.84C317.584 276.84 318.218 260.889 318.801 256.52C319.384 252.151 323.055 238.462 323.055 238.462L309.815 250.301L306.813 282.186L317.584 276.84Z" fill="#A8A8A8"/>
<path d="M493.474 192.476C494.942 192.476 496.132 191.287 496.132 189.82C496.132 188.354 494.942 187.165 493.474 187.165C492.006 187.165 490.816 188.354 490.816 189.82C490.816 191.287 492.006 192.476 493.474 192.476Z" fill="white"/>
<path d="M371.023 144.537C370.796 144.537 370.578 144.627 370.417 144.788C370.256 144.948 370.166 145.166 370.166 145.393C370.166 145.621 370.256 145.839 370.417 145.999C370.578 146.16 370.796 146.25 371.023 146.25C371.25 146.25 371.469 146.16 371.629 145.999C371.79 145.839 371.881 145.621 371.881 145.393C371.881 145.166 371.79 144.948 371.629 144.788C371.469 144.627 371.25 144.537 371.023 144.537Z" fill="white"/>
<path d="M255.535 174.983C255.308 174.983 255.09 175.073 254.929 175.234C254.768 175.394 254.678 175.612 254.678 175.839C254.678 176.067 254.768 176.284 254.929 176.445C255.09 176.606 255.308 176.696 255.535 176.696C255.763 176.696 255.981 176.606 256.142 176.445C256.302 176.284 256.393 176.067 256.393 175.839C256.393 175.612 256.302 175.394 256.142 175.234C255.981 175.073 255.763 174.983 255.535 174.983Z" fill="white"/>
<path d="M205.8 256.417C205.572 256.417 205.354 256.508 205.194 256.668C205.033 256.829 204.942 257.047 204.942 257.274C204.942 257.501 205.033 257.719 205.194 257.88C205.354 258.041 205.572 258.131 205.8 258.131C206.027 258.131 206.245 258.041 206.406 257.88C206.567 257.719 206.657 257.501 206.657 257.274C206.657 257.047 206.567 256.829 206.406 256.668C206.245 256.508 206.027 256.417 205.8 256.417Z" fill="white"/>
<path d="M283.85 245.795C283.622 245.795 283.404 245.885 283.243 246.046C283.083 246.206 282.992 246.424 282.992 246.651C282.992 246.879 283.083 247.097 283.243 247.257C283.404 247.418 283.622 247.508 283.85 247.508C284.077 247.508 284.295 247.418 284.456 247.257C284.617 247.097 284.707 246.879 284.707 246.651C284.707 246.424 284.617 246.206 284.456 246.046C284.295 245.885 284.077 245.795 283.85 245.795Z" fill="white"/>
<path d="M265.413 195.508C265.186 195.508 264.968 195.599 264.807 195.759C264.646 195.92 264.556 196.138 264.556 196.365C264.556 196.592 264.646 196.81 264.807 196.971C264.968 197.132 265.186 197.222 265.413 197.222C265.641 197.222 265.859 197.132 266.02 196.971C266.18 196.81 266.271 196.592 266.271 196.365C266.271 196.138 266.18 195.92 266.02 195.759C265.859 195.599 265.641 195.508 265.413 195.508Z" fill="white"/>
<path d="M469.413 199.912V200.614C469.413 200.841 469.503 201.059 469.664 201.22C469.825 201.381 470.043 201.471 470.27 201.471C470.498 201.471 470.716 201.381 470.877 201.22C471.037 201.059 471.128 200.841 471.128 200.614V199.912C471.128 199.685 471.037 199.467 470.877 199.306C470.716 199.145 470.498 199.055 470.27 199.055C470.043 199.055 469.825 199.145 469.664 199.306C469.503 199.467 469.413 199.685 469.413 199.912Z" fill="white"/>
<path d="M539.728 268.445C539.5 268.445 539.282 268.535 539.121 268.696C538.96 268.857 538.87 269.075 538.87 269.302C538.87 269.529 538.96 269.747 539.121 269.907C539.282 270.068 539.5 270.158 539.728 270.158C539.955 270.158 540.173 270.068 540.334 269.907C540.495 269.747 540.585 269.529 540.585 269.302C540.585 269.075 540.495 268.857 540.334 268.696C540.173 268.535 539.955 268.445 539.728 268.445Z" fill="white"/>
<path d="M442.624 163.658C442.397 163.658 442.179 163.748 442.018 163.909C441.857 164.069 441.767 164.287 441.767 164.514C441.767 164.741 441.857 164.959 442.018 165.12C442.179 165.281 442.397 165.371 442.624 165.371C442.852 165.371 443.07 165.281 443.23 165.12C443.391 164.959 443.482 164.741 443.482 164.514C443.482 164.287 443.391 164.069 443.23 163.909C443.07 163.748 442.852 163.658 442.624 163.658Z" fill="white"/>
<path d="M470.27 301.735C470.043 301.735 469.825 301.825 469.664 301.986C469.503 302.147 469.413 302.365 469.413 302.592C469.413 302.819 469.503 303.037 469.664 303.198C469.825 303.358 470.043 303.448 470.27 303.448C470.498 303.448 470.716 303.358 470.877 303.198C471.037 303.037 471.128 302.819 471.128 302.592C471.128 302.365 471.037 302.147 470.877 301.986C470.716 301.825 470.498 301.735 470.27 301.735Z" fill="white"/>
<path d="M206.589 344.928C206.362 344.928 206.143 345.019 205.983 345.179C205.822 345.34 205.731 345.558 205.731 345.785C205.731 346.012 205.822 346.23 205.983 346.391C206.143 346.551 206.362 346.642 206.589 346.642C206.816 346.642 207.034 346.551 207.195 346.391C207.356 346.23 207.446 346.012 207.446 345.785C207.446 345.558 207.356 345.34 207.195 345.179C207.034 345.019 206.816 344.928 206.589 344.928Z" fill="white"/>
<path d="M183.093 250.301L182.39 249.598C182.229 249.437 182.01 249.346 181.781 249.346C181.553 249.346 181.334 249.437 181.173 249.598C181.011 249.76 180.92 249.979 180.92 250.207C180.92 250.435 181.011 250.654 181.173 250.815L181.876 251.517C182.037 251.679 182.256 251.769 182.485 251.769C182.713 251.769 182.932 251.679 183.093 251.517C183.255 251.356 183.346 251.137 183.346 250.909C183.346 250.681 183.255 250.462 183.093 250.301Z" fill="white"/>
<path d="M149.205 312.358C148.978 312.358 148.76 312.448 148.599 312.609C148.438 312.769 148.348 312.987 148.348 313.214C148.348 313.442 148.438 313.66 148.599 313.82C148.76 313.981 148.978 314.071 149.205 314.071C149.433 314.071 149.651 313.981 149.812 313.82C149.972 313.66 150.063 313.442 150.063 313.214C150.063 312.987 149.972 312.769 149.812 312.609C149.651 312.448 149.433 312.358 149.205 312.358Z" fill="white"/>
<path d="M313.622 410.069C313.395 410.069 313.177 410.159 313.016 410.32C312.855 410.481 312.765 410.699 312.765 410.926C312.765 411.153 312.855 411.371 313.016 411.532C313.177 411.692 313.395 411.783 313.622 411.783C313.85 411.783 314.068 411.692 314.229 411.532C314.389 411.371 314.48 411.153 314.48 410.926C314.48 410.699 314.389 410.481 314.229 410.32C314.068 410.159 313.85 410.069 313.622 410.069Z" fill="white"/>
<path d="M362.517 402.291C362.289 402.291 362.071 402.381 361.91 402.542C361.75 402.702 361.659 402.92 361.659 403.147C361.659 403.375 361.75 403.592 361.91 403.753C362.071 403.914 362.289 404.004 362.517 404.004C362.744 404.004 362.962 403.914 363.123 403.753C363.284 403.592 363.374 403.375 363.374 403.147C363.374 402.92 363.284 402.702 363.123 402.542C362.962 402.381 362.744 402.291 362.517 402.291Z" fill="white"/>
<path d="M483.733 370.423C483.506 370.423 483.287 370.513 483.127 370.674C482.966 370.834 482.875 371.052 482.875 371.279C482.875 371.507 482.966 371.724 483.127 371.885C483.287 372.046 483.506 372.136 483.733 372.136C483.96 372.136 484.179 372.046 484.339 371.885C484.5 371.724 484.591 371.507 484.591 371.279C484.591 371.052 484.5 370.834 484.339 370.674C484.179 370.513 483.96 370.423 483.733 370.423Z" fill="white"/>
<path d="M543.277 326.527C543.05 326.527 542.832 326.617 542.671 326.778C542.51 326.939 542.42 327.157 542.42 327.384C542.42 327.611 542.51 327.829 542.671 327.989C542.832 328.15 543.05 328.24 543.277 328.24C543.505 328.24 543.723 328.15 543.884 327.989C544.045 327.829 544.135 327.611 544.135 327.384C544.135 327.157 544.045 326.939 543.884 326.778C543.723 326.617 543.505 326.527 543.277 326.527Z" fill="white"/>
<path d="M458.214 261.369C457.987 261.369 457.768 261.459 457.608 261.62C457.447 261.781 457.356 261.998 457.356 262.226C457.356 262.453 457.447 262.671 457.608 262.831C457.768 262.992 457.987 263.082 458.214 263.082C458.441 263.082 458.659 262.992 458.82 262.831C458.981 262.671 459.071 262.453 459.071 262.226C459.071 261.998 458.981 261.781 458.82 261.62C458.659 261.459 458.441 261.369 458.214 261.369Z" fill="white"/>
<path d="M159.101 356.973C158.873 356.973 158.655 357.063 158.494 357.224C158.334 357.385 158.243 357.602 158.243 357.83C158.243 358.057 158.334 358.275 158.494 358.435C158.655 358.596 158.873 358.686 159.101 358.686C159.328 358.686 159.546 358.596 159.707 358.435C159.868 358.275 159.958 358.057 159.958 357.83C159.958 357.602 159.868 357.385 159.707 357.224C159.546 357.063 159.328 356.973 159.101 356.973Z" fill="white"/>
<path d="M302.989 139.688C297.467 139.688 297.467 148.255 302.989 148.255C308.511 148.255 308.511 139.688 302.989 139.688Z" fill="white"/>
<path d="M493.474 358.361C501.734 358.361 508.429 355.837 508.429 352.724C508.429 349.611 501.734 347.087 493.474 347.087C485.215 347.087 478.52 349.611 478.52 352.724C478.52 355.837 485.215 358.361 493.474 358.361Z" fill="#CC7A36"/>
<path d="M499.871 353.923V270.707H496.132V353.461C497.343 353.826 498.608 353.982 499.871 353.923Z" fill="#68E1FD"/>
<path d="M496.132 270.707C496.132 270.707 503.284 263.065 517.501 266.954C526.17 269.286 535.234 269.765 544.101 268.359V290.05C544.101 290.05 522.149 291.147 515.649 287.48C509.149 283.814 496.132 293.528 496.132 293.528" fill="#68E1FD"/>
<path d="M212.026 368.247C220.285 368.247 226.98 365.723 226.98 362.61C226.98 359.497 220.285 356.973 212.026 356.973C203.766 356.973 197.071 359.497 197.071 362.61C197.071 365.723 203.766 368.247 212.026 368.247Z" fill="#CC7A36"/>
<path d="M344.698 370.371C370.47 370.371 391.363 366.896 391.363 362.61C391.363 358.323 370.47 354.848 344.698 354.848C318.925 354.848 298.033 358.323 298.033 362.61C298.033 366.896 318.925 370.371 344.698 370.371Z" fill="#CC7A36"/>
<defs>
<linearGradient id="paint0_linear" x1="423.999" y1="204.452" x2="374.882" y2="205.396" gradientUnits="userSpaceOnUse">
<stop stop-color="white"/>
<stop offset="0.03" stop-color="#F7931E"/>
<stop offset="1" stop-color="#1B1464"/>
</linearGradient>
</defs>
</svg>
