<svg width="80" height="81" viewBox="0 0 80 81" fill="none" xmlns="http://www.w3.org/2000/svg">
<path d="M24.99 53.6176C33.87 63.1174 48.7737 63.616 58.2783 54.7314C67.783 45.8468 68.2894 30.9433 59.4094 21.4436C50.5294 11.9439 35.6257 11.4452 26.121 20.3298C16.6164 29.2145 16.11 44.1179 24.99 53.6176Z" fill="#FFAE46"/>
<path d="M64.7418 42.6722C66.939 44.019 69.0484 45.5039 71.0573 47.118C72.0741 47.921 73.0453 48.7803 73.9661 49.6918C74.939 50.6221 75.8014 51.6615 76.5361 52.7893C76.9648 53.4382 77.2622 54.1649 77.4113 54.9282C77.4914 55.3976 77.4725 55.8787 77.3557 56.3404C77.2211 56.8363 76.9639 57.2903 76.6076 57.6606C75.9943 58.247 75.2479 58.6758 74.4325 58.9102C73.7542 59.1258 73.0584 59.2815 72.353 59.3757C69.6974 59.6163 67.0223 59.5242 64.39 59.1016C59.2766 58.347 54.2321 57.1839 49.305 55.6236C44.3783 54.1282 39.5341 52.3741 34.7925 50.3685C30.0244 48.386 25.3818 46.1146 20.8905 43.5669C18.6153 42.2945 16.4097 40.9016 14.283 39.3941C12.0764 37.875 9.99459 36.1823 8.05725 34.3322C7.07025 33.3792 6.17181 32.3386 5.37296 31.2232C4.49988 30.0477 3.83133 28.7333 3.39542 27.3353C3.1554 26.5677 3.04068 25.7663 3.05567 24.9621C3.08158 24.051 3.34916 23.1631 3.83101 22.3892C4.30292 21.6626 4.9452 21.0622 5.70198 20.6403C6.35741 20.2709 7.05822 19.9886 7.78665 19.8005C10.4387 19.27 13.165 19.2266 15.8321 19.6722C18.3863 19.9988 20.9072 20.546 23.3667 21.3078C20.8508 21.1235 18.3273 21.0646 15.8055 21.1312C13.3577 21.1281 10.924 21.503 8.59033 22.2427C7.68515 22.5082 6.90891 23.097 6.40919 23.8972C6.25713 24.2301 6.19208 24.5961 6.22017 24.961C6.26227 25.4275 6.36754 25.8862 6.53309 26.3243C7.47978 28.3805 8.87867 30.1962 10.6254 31.6359C14.3817 34.8211 18.4792 37.5806 22.8432 39.864C27.2094 42.2878 31.7787 44.3592 36.3785 46.4316C45.5529 50.4646 55.0892 53.6194 64.8596 55.8535C67.2289 56.369 69.6464 56.6318 72.0715 56.6375C72.6255 56.624 73.1773 56.5632 73.721 56.4558C74.1421 56.3767 74.5428 56.2133 74.8992 55.9754C75.0111 55.8842 75.0967 55.7646 75.147 55.6293C75.1973 55.4939 75.2105 55.3475 75.1852 55.2053C75.1234 54.7045 74.9744 54.2183 74.7448 53.7689C73.5334 51.6313 72.0248 49.6765 70.2642 47.9628C68.5083 46.1002 66.6645 44.3493 64.7418 42.6722Z" fill="#EB773A"/>
</svg>
